# xmcd CD database file generated by Grip 2.96
# 
# Track frame offsets:
#       187
#       17902
#       33622
#       49610
#       68182
#       90440
#       107150
#       124692
#       137670
#       153492
# 
# Disc length: 2300 seconds
# 
# Revision: 0
# Processed by: cddbd v1.4PL0 Copyright (c) Steve Scherf et al.
# Submitted via: Grip 2.96
# 
DISCID=8108fa0a
DTITLE=Danny Daniels - Hearts On Fire
DYEAR=1900
DGENRE=
TTITLE0=All My Days
TTITLE1=Carry On
TTITLE2=Lord We Praise You
TTITLE3=Dreams Of Love
TTITLE4=Hearts On Fire
TTITLE5=Mighty Savior
TTITLE6=Faithfulness
TTITLE7=To Be With You
TTITLE8=All Seasons
TTITLE9=Stay With Me
EXTD=
EXTT0=
EXTT1=
EXTT2=
EXTT3=
EXTT4=
EXTT5=
EXTT6=
EXTT7=
EXTT8=
EXTT9=
PLAYORDER=
